<?xml version="1.0" standalone="no"?><!DOCTYPE svg PUBLIC "-//W3C//DTD SVG 1.1//EN" "http://www.w3.org/Graphics/SVG/1.1/DTD/svg11.dtd"><svg t="1674189314783" class="icon" viewBox="0 0 1097 1024" version="1.1" xmlns="http://www.w3.org/2000/svg" p-id="3447" xmlns:xlink="http://www.w3.org/1999/xlink" width="214.2578125" height="200"><path d="M359.175758 27.927273h422.787878v131.878788H359.175758z" fill="#F94E44" p-id="3448"></path><path d="M353.745455 27.927273v131.878788h432.872727v-131.878788H353.745455z m415.030303 114.036363H371.587879V45.769697h397.187879v96.193939z" fill="" p-id="3449"></path><path d="M361.50303 84.557576h109.381818v14.739394H361.50303zM515.10303 84.557576h109.381818v14.739394H515.10303zM674.133333 84.557576H783.515152v14.739394H674.133333zM353.745455 819.2h15.515151v165.236364h-15.515151zM770.327273 819.2h16.290909v165.236364h-16.290909zM434.424242 819.2h15.515152v165.236364h-15.515152zM515.10303 819.2h15.515152v165.236364h-15.515152zM602.763636 819.2h15.515152v165.236364h-15.515152zM688.09697 819.2h15.515151v165.236364h-15.515151z" fill="" p-id="3450"></path><path d="M665.6 160.581818l-181.527273-0.775757c-183.854545 0.775758-332.024242 125.672727-332.024242 279.272727s148.945455 279.272727 332.024242 279.272727h181.527273v-0.775757c179.2-4.654545 323.490909-127.224242 323.490909-279.272728s-144.290909-273.842424-323.490909-277.721212z" fill="#FFCE72" p-id="3451"></path><path d="M660.169697 160.581818l-186.181818-0.775757c-188.509091 0.775758-340.557576 128.775758-340.557576 287.030303s152.824242 286.254545 340.557576 286.254545h186.181818v-0.775757c183.854545-4.654545 331.248485-131.10303 331.248485-286.254546 0-154.375758-147.393939-280.824242-331.248485-285.478788z m-6.981818 550.787879H480.969697c-173.769697-0.775758-314.957576-118.690909-314.957576-264.533333 0-72.921212 35.684848-139.636364 92.315152-186.957576 56.630303-48.09697 135.757576-77.575758 222.642424-77.575758h172.218182c169.890909 3.878788 306.424242 121.018182 306.424242 264.533334s-136.533333 260.654545-306.424242 264.533333z" fill="" p-id="3452"></path><path d="M359.175758 733.866667h422.787878v131.878788H359.175758z" fill="#F94E44" p-id="3453"></path><path d="M353.745455 733.866667v131.878788h432.872727v-131.878788H353.745455z m415.030303 114.036363H371.587879V750.933333h397.187879v96.969697z" fill="" p-id="3454"></path><path d="M361.50303 790.49697h109.381818v14.739394H361.50303zM515.10303 790.49697h109.381818v14.739394H515.10303zM674.133333 790.49697H783.515152v14.739394H674.133333zM560.09697 167.563636h20.945454v544.581819h-20.945454z" fill="" p-id="3455"></path><path d="M660.945455 417.357576a129.551515 67.490909 90 1 0 134.981818 0 129.551515 67.490909 90 1 0-134.981818 0Z" fill="#F9E5A8" p-id="3456"></path><path d="M567.078788 159.806061c-103.175758 0-186.181818 128.775758-186.181818 287.030303s83.006061 287.030303 186.181818 287.030303c102.4 0 186.181818-128.775758 186.181818-287.030303s-83.781818-287.030303-186.181818-287.030303z m0 548.460606c-93.866667 0-169.890909-117.139394-169.890909-261.430303S473.212121 185.406061 567.078788 185.406061C660.945455 185.406061 736.969697 302.545455 736.969697 446.836364c-0.775758 144.290909-76.8 261.430303-169.890909 261.430303z" fill="" p-id="3457"></path><path d="M568.630303 159.806061c-188.509091 0-341.333333 128.775758-341.333333 287.030303s152.824242 287.030303 341.333333 287.030303 341.333333-128.775758 341.333333-287.030303-152.824242-287.030303-341.333333-287.030303z m0 548.460606c-172.218182 0-311.078788-117.139394-311.078788-261.430303s139.636364-261.430303 311.078788-261.430303c172.218182 0 311.078788 117.139394 311.078788 261.430303 0.775758 144.290909-138.860606 261.430303-311.078788 261.430303z" fill="" p-id="3458"></path></svg>